<mxfile host="app.diagrams.net" modified="2022-08-21T11:53:23.538Z" agent="5.0 (X11; Linux x86_64) AppleWebKit/537.36 (KHTML, like Gecko) Chrome/104.0.5112.81 Safari/537.36" etag="nhW-vOM319bkYctYeWHG" version="20.2.3" type="github">
  <diagram id="8hUhNZlrNE0BlucA3pEV" name="Page-1">
    <mxGraphModel dx="1409" dy="757" grid="1" gridSize="10" guides="1" tooltips="1" connect="1" arrows="1" fold="1" page="1" pageScale="1" pageWidth="827" pageHeight="1169" math="0" shadow="0">
      <root>
        <mxCell id="0" />
        <mxCell id="1" parent="0" />
        <mxCell id="oVYj8HAVm-AE-L-m33jr-13" value="" style="rounded=0;whiteSpace=wrap;html=1;" vertex="1" parent="1">
          <mxGeometry width="827" height="1050" as="geometry" />
        </mxCell>
        <mxCell id="oVYj8HAVm-AE-L-m33jr-1" value="" style="rounded=0;whiteSpace=wrap;html=1;" vertex="1" parent="1">
          <mxGeometry width="827" height="100" as="geometry" />
        </mxCell>
        <mxCell id="oVYj8HAVm-AE-L-m33jr-2" value="" style="ellipse;whiteSpace=wrap;html=1;aspect=fixed;" vertex="1" parent="1">
          <mxGeometry x="10" y="10" width="80" height="80" as="geometry" />
        </mxCell>
        <mxCell id="oVYj8HAVm-AE-L-m33jr-3" value="Header" style="text;html=1;strokeColor=none;fillColor=none;align=center;verticalAlign=middle;whiteSpace=wrap;rounded=0;" vertex="1" parent="1">
          <mxGeometry x="384" y="35" width="60" height="30" as="geometry" />
        </mxCell>
        <mxCell id="oVYj8HAVm-AE-L-m33jr-4" value="Logo" style="text;html=1;strokeColor=none;fillColor=none;align=center;verticalAlign=middle;whiteSpace=wrap;rounded=0;" vertex="1" parent="1">
          <mxGeometry x="20" y="35" width="60" height="30" as="geometry" />
        </mxCell>
        <mxCell id="oVYj8HAVm-AE-L-m33jr-5" value="" style="rounded=1;whiteSpace=wrap;html=1;" vertex="1" parent="1">
          <mxGeometry x="670" y="35" width="130" height="30" as="geometry" />
        </mxCell>
        <mxCell id="oVYj8HAVm-AE-L-m33jr-6" value="Search" style="text;html=1;strokeColor=none;fillColor=none;align=center;verticalAlign=middle;whiteSpace=wrap;rounded=0;" vertex="1" parent="1">
          <mxGeometry x="705" y="35" width="60" height="30" as="geometry" />
        </mxCell>
        <mxCell id="oVYj8HAVm-AE-L-m33jr-7" value="" style="rounded=0;whiteSpace=wrap;html=1;" vertex="1" parent="1">
          <mxGeometry y="100" width="100" height="950" as="geometry" />
        </mxCell>
        <mxCell id="oVYj8HAVm-AE-L-m33jr-8" value="Side Bar" style="text;html=1;strokeColor=none;fillColor=none;align=center;verticalAlign=middle;whiteSpace=wrap;rounded=0;" vertex="1" parent="1">
          <mxGeometry x="20" y="510" width="60" height="30" as="geometry" />
        </mxCell>
        <mxCell id="oVYj8HAVm-AE-L-m33jr-9" value="" style="rounded=0;whiteSpace=wrap;html=1;" vertex="1" parent="1">
          <mxGeometry y="921" width="827" height="129" as="geometry" />
        </mxCell>
        <mxCell id="oVYj8HAVm-AE-L-m33jr-10" value="Footer" style="text;html=1;strokeColor=none;fillColor=none;align=center;verticalAlign=middle;whiteSpace=wrap;rounded=0;" vertex="1" parent="1">
          <mxGeometry x="384" y="969.5" width="60" height="30" as="geometry" />
        </mxCell>
        <mxCell id="oVYj8HAVm-AE-L-m33jr-11" value="" style="rounded=0;whiteSpace=wrap;html=1;" vertex="1" parent="1">
          <mxGeometry x="120" y="110" width="690" height="130" as="geometry" />
        </mxCell>
        <mxCell id="oVYj8HAVm-AE-L-m33jr-12" value="&lt;h1&gt;Welcome&lt;/h1&gt;&lt;p&gt;About the site&lt;/p&gt;" style="text;html=1;strokeColor=none;fillColor=none;spacing=5;spacingTop=-20;whiteSpace=wrap;overflow=hidden;rounded=0;" vertex="1" parent="1">
          <mxGeometry x="130" y="120" width="670" height="110" as="geometry" />
        </mxCell>
        <mxCell id="oVYj8HAVm-AE-L-m33jr-37" value="&lt;b style=&quot;font-size: 12px;&quot;&gt;&lt;font style=&quot;font-size: 12px;&quot;&gt;Card title&lt;/font&gt;&lt;/b&gt;" style="html=1;shadow=0;dashed=0;shape=mxgraph.bootstrap.rrect;rSize=5;strokeColor=#DFDFDF;html=1;whiteSpace=wrap;fillColor=#ffffff;fontColor=#000000;verticalAlign=bottom;align=left;spacing=15;spacingBottom=0;fontSize=12;" vertex="1" parent="1">
          <mxGeometry x="120" y="250" width="200" height="180" as="geometry" />
        </mxCell>
        <mxCell id="oVYj8HAVm-AE-L-m33jr-38" value="Image cap" style="html=1;shadow=0;dashed=0;shape=mxgraph.bootstrap.topButton;rSize=5;perimeter=none;whiteSpace=wrap;fillColor=#868E96;strokeColor=#DFDFDF;fontColor=#DEE2E6;resizeWidth=1;fontSize=18;" vertex="1" parent="oVYj8HAVm-AE-L-m33jr-37">
          <mxGeometry width="200" height="140" relative="1" as="geometry" />
        </mxCell>
        <mxCell id="oVYj8HAVm-AE-L-m33jr-47" value="&lt;b style=&quot;font-size: 12px;&quot;&gt;&lt;font style=&quot;font-size: 12px;&quot;&gt;Card title&lt;/font&gt;&lt;/b&gt;" style="html=1;shadow=0;dashed=0;shape=mxgraph.bootstrap.rrect;rSize=5;strokeColor=#DFDFDF;html=1;whiteSpace=wrap;fillColor=#ffffff;fontColor=#000000;verticalAlign=bottom;align=left;spacing=15;spacingBottom=0;fontSize=12;" vertex="1" parent="1">
          <mxGeometry x="365" y="250" width="200" height="180" as="geometry" />
        </mxCell>
        <mxCell id="oVYj8HAVm-AE-L-m33jr-48" value="Image cap" style="html=1;shadow=0;dashed=0;shape=mxgraph.bootstrap.topButton;rSize=5;perimeter=none;whiteSpace=wrap;fillColor=#868E96;strokeColor=#DFDFDF;fontColor=#DEE2E6;resizeWidth=1;fontSize=18;" vertex="1" parent="oVYj8HAVm-AE-L-m33jr-47">
          <mxGeometry width="200" height="140" relative="1" as="geometry" />
        </mxCell>
        <mxCell id="oVYj8HAVm-AE-L-m33jr-49" value="&lt;b style=&quot;font-size: 12px;&quot;&gt;&lt;font style=&quot;font-size: 12px;&quot;&gt;Card title&lt;/font&gt;&lt;/b&gt;" style="html=1;shadow=0;dashed=0;shape=mxgraph.bootstrap.rrect;rSize=5;strokeColor=#DFDFDF;html=1;whiteSpace=wrap;fillColor=#ffffff;fontColor=#000000;verticalAlign=bottom;align=left;spacing=15;spacingBottom=0;fontSize=12;" vertex="1" parent="1">
          <mxGeometry x="610" y="250" width="200" height="180" as="geometry" />
        </mxCell>
        <mxCell id="oVYj8HAVm-AE-L-m33jr-50" value="Image cap" style="html=1;shadow=0;dashed=0;shape=mxgraph.bootstrap.topButton;rSize=5;perimeter=none;whiteSpace=wrap;fillColor=#868E96;strokeColor=#DFDFDF;fontColor=#DEE2E6;resizeWidth=1;fontSize=18;" vertex="1" parent="oVYj8HAVm-AE-L-m33jr-49">
          <mxGeometry width="200" height="140" relative="1" as="geometry" />
        </mxCell>
      </root>
    </mxGraphModel>
  </diagram>
</mxfile>
